<mxfile host="app.diagrams.net" modified="2024-06-28T03:29:07.112Z" agent="Mozilla/5.0 (Macintosh; Intel Mac OS X 10_15_7) AppleWebKit/537.36 (KHTML, like Gecko) Chrome/124.0.0.0 Safari/537.36 OPR/110.0.0.0" version="24.6.4" etag="aSDd4t_Rw9V54p2-8YR0" type="github">
  <diagram name="PÃ¡gina-1" id="N2u_YXbWuDHsX3JGvfar">
    <mxGraphModel>
      <root>
        <mxCell id="0" />
        <mxCell id="1" parent="0" />
      </root>
    </mxGraphModel>
  </diagram>
</mxfile>
